<?xml version="1.0" encoding="UTF-8"?>
<svg version="1.1" xmlns="http://www.w3.org/2000/svg" width="378" height="306">
<path d="M0 0 C40.26 0 80.52 0 122 0 C123.32 4.95 124.64 9.9 126 15 C129.6218639 24.96012573 134.59835632 33.0645877 140.89453125 41.5546875 C148.29716904 51.65065974 151.53234138 60.88951716 152.19262695 73.32592773 C152.54894422 78.7357777 153.5124114 81.79379673 157 86 C157.66 86.33 158.32 86.66 159 87 C159.0093457 87.69561035 159.01869141 88.3912207 159.02832031 89.10791016 C159.08223546 92.280975 159.16584173 95.4525991 159.25 98.625 C159.26417969 99.71941406 159.27835938 100.81382812 159.29296875 101.94140625 C159.48567394 108.30067761 159.90897628 112.07440745 164 117 C164 117.66 164 118.32 164 119 C165.32 119.66 166.64 120.32 168 121 C168 121.66 168 122.32 168 123 C146.24317719 123.02332684 124.48635643 123.04097812 102.72952366 123.05181217 C92.62819057 123.05697559 82.52686523 123.06401915 72.42553711 123.07543945 C63.62455536 123.0853849 54.82357922 123.09185309 46.02259201 123.09408849 C41.35953733 123.09539584 36.69649872 123.09848318 32.03344917 123.10573006 C27.64967634 123.11248809 23.26592629 123.11461741 18.88214874 123.11310768 C17.26839766 123.11338411 15.65464587 123.11539052 14.04089928 123.11920547 C11.8473111 123.12413934 9.6538103 123.12299944 7.46022034 123.12025452 C5.61432989 123.12163721 5.61432989 123.12163721 3.73114872 123.12304783 C1 123 1 123 0 122 C-0.09594225 120.41845152 -0.1218796 118.83260875 -0.12025452 117.24815369 C-0.12163201 116.22239951 -0.12300951 115.19664534 -0.12442875 114.1398077 C-0.12083064 113.00046559 -0.11723253 111.86112349 -0.11352539 110.68725586 C-0.11370619 108.87314508 -0.11370619 108.87314508 -0.11389065 107.0223856 C-0.11314104 103.08651995 -0.10551062 99.15070098 -0.09765625 95.21484375 C-0.09618698 92.79333519 -0.09516618 90.37182632 -0.09460449 87.95031738 C-0.08934988 78.9460401 -0.07538882 69.9417696 -0.0625 60.9375 C-0.041875 40.828125 -0.02125 20.71875 0 0 Z M65 23 C65 27.95 65 32.9 65 38 C68.3 38 71.6 38 75 38 C75 33.05 75 28.1 75 23 C71.7 23 68.4 23 65 23 Z M36 61 C36.33 65.95 36.66 70.9 37 76 C39.97 76 42.94 76 46 76 C46 71.05 46 66.1 46 61 C42.7 61 39.4 61 36 61 Z M91 61 C91 65.95 91 70.9 91 76 C93.97 76 96.94 76 100 76 C100 71.05 100 66.1 100 61 C97.03 61 94.06 61 91 61 Z M27 99 C27 103.62 27 108.24 27 113 C30.3 113 33.6 113 37 113 C37 108.38 37 103.76 37 99 C33.7 99 30.4 99 27 99 Z M101 99 C101 103.62 101 108.24 101 113 C104.3 113 107.6 113 111 113 C111 108.38 111 103.76 111 99 C107.7 99 104.4 99 101 99 Z " fill="#144478" transform="translate(63,158)"/>
<path d="M0 0 C1.04220703 -0.03867187 1.04220703 -0.03867187 2.10546875 -0.078125 C11.8889276 1.1077488 20.71943894 6.52936012 29.375 10.9375 C30.73994721 11.62752147 32.10518026 12.31697781 33.47070312 13.00585938 C36.20334478 14.38519201 38.93444973 15.76750169 41.66455078 17.15185547 C47.76753873 20.24325185 53.88976759 23.29620093 60.01119995 26.3508606 C62.94574988 27.81567456 65.87906731 29.28295008 68.8125 30.75 C69.781875 31.2346875 70.75125 31.719375 71.75 32.21875 C72.430625 32.5590625 73.11125 32.899375 73.8125 33.25 C73.8125 33.91 73.8125 34.57 73.8125 35.25 C72.90628906 35.67410156 72.00007812 36.09820312 71.06640625 36.53515625 C64.26106576 39.79232526 58.34667513 42.943733 52.77734375 48.16015625 C52.12894531 48.51980469 51.48054687 48.87945312 50.8125 49.25 C45.75646642 47.67545877 41.04586597 44.87449946 36.34765625 42.4609375 C34.47752164 41.50981064 32.60706905 40.55930877 30.73632812 39.609375 C27.79941436 38.11620407 24.8645067 36.6196013 21.93481445 35.11230469 C19.09877314 33.65489787 16.25530894 32.21295797 13.41015625 30.7734375 C12.5381105 30.32036224 11.66606476 29.86728699 10.76759338 29.40048218 C4.60698285 26.28852553 4.60698285 26.28852553 -2.1875 26.25 C-4.64713396 27.17473224 -6.88524993 28.13437953 -9.2265625 29.29296875 C-9.89649734 29.61269653 -10.56643219 29.93242432 -11.25666809 30.26184082 C-13.4471553 31.3099133 -15.62960839 32.3737111 -17.8125 33.4375 C-19.3445208 34.17355846 -20.8771625 34.90832586 -22.41040039 35.6418457 C-24.74813273 36.76062319 -27.08535642 37.880362 -29.42048645 39.00456238 C-36.4545656 42.39088873 -43.53371979 45.67255957 -50.625 48.9375 C-59.91433823 53.23246303 -69.15891733 57.61255721 -78.375 62.0625 C-79.49382568 62.60245605 -80.61265137 63.14241211 -81.76538086 63.69873047 C-85.83209382 65.66226369 -89.89865785 67.62609612 -93.96337891 69.59375 C-96.36869775 70.75578363 -98.77742047 71.91038116 -101.1875 73.0625 C-102.21073364 73.56003784 -102.21073364 73.56003784 -103.25463867 74.06762695 C-106.103249 75.42221349 -107.98887923 76.25 -111.1875 76.25 C-111.1875 129.71 -111.1875 183.17 -111.1875 238.25 C-129.53885135 238.25 -129.53885135 238.25 -134.1875 234.25 C-137.11931322 230.28127251 -137.56512726 227.43004639 -137.57518005 222.53895569 C-137.58056559 221.87738148 -137.58595113 221.21580727 -137.59149987 220.53418535 C-137.60576924 218.32476388 -137.59867864 216.11594242 -137.59155273 213.90649414 C-137.59725687 212.31944803 -137.60422129 210.73240602 -137.61235046 209.14537048 C-137.63029243 204.83955673 -137.62911155 200.53394665 -137.62340808 196.22810674 C-137.62031769 192.6321365 -137.62640702 189.03620546 -137.63244683 185.4402408 C-137.64649388 176.95630249 -137.6449293 168.47246487 -137.63354492 159.98852539 C-137.62206347 151.23894733 -137.63613936 142.48967578 -137.6629414 133.74013811 C-137.68509967 126.22490947 -137.69173549 118.70977702 -137.68586498 111.19451803 C-137.6824945 106.70736854 -137.68491647 102.22041553 -137.70211601 97.73329353 C-137.71758514 93.51344273 -137.7136302 89.2940459 -137.69481087 85.07421303 C-137.69112486 83.52706234 -137.69423386 81.97987803 -137.70469666 80.43275833 C-137.71790869 78.317326 -137.70635992 76.20339619 -137.68870544 74.08802795 C-137.68849616 72.9054091 -137.68828688 71.72279024 -137.68807125 70.50433445 C-136.97277971 65.85405158 -134.81548374 62.70669601 -131.33349609 59.59106445 C-124.49312185 55.1726609 -117.20918928 51.79878498 -109.8125 48.4375 C-108.45876348 47.81536866 -107.1054142 47.19239403 -105.75244141 46.56860352 C-103.0907565 45.34184461 -100.42773988 44.11805855 -97.76367188 42.89648438 C-93.34590234 40.86252494 -88.95099095 38.7836731 -84.5625 36.6875 C-75.7277775 32.48124087 -66.84468074 28.38077736 -57.96386719 24.27294922 C-49.87829744 20.52370711 -41.83613261 16.69228648 -33.8125 12.8125 C-7.61904201 0.16653644 -7.61904201 0.16653644 0 0 Z " fill="#18477C" transform="translate(163.1875,42.75)"/>
<path d="M0 0 C8.67462613 6.96666865 15.26848362 16.90970915 17 28 C18.67333154 46.75128974 12.99787415 58.6410594 1.875 73.5625 C-3.52590624 80.91692551 -7.05865638 88.25929498 -9.421875 97.06640625 C-10 99 -10 99 -11 100 C-13.48584036 100.12568214 -15.94241672 100.18862757 -18.4296875 100.203125 C-19.54889084 100.21167511 -19.54889084 100.21167511 -20.69070435 100.22039795 C-22.27279232 100.22986151 -23.85490012 100.2363873 -25.43701172 100.24023438 C-27.85809782 100.2499323 -30.2783324 100.28093823 -32.69921875 100.3125 C-34.23436994 100.3190306 -35.76952723 100.32428085 -37.3046875 100.328125 C-38.02977509 100.3404718 -38.75486267 100.3528186 -39.50192261 100.36553955 C-44.51487123 100.34332571 -44.51487123 100.34332571 -46.91186523 98.64697266 C-48.4795244 96.27420426 -49.27623273 93.81603475 -50.1875 91.125 C-53.72461401 81.59385446 -59.05900861 73.49704434 -65.1875 65.4375 C-73.21648493 54.64262459 -76.02509374 43.28228604 -75 30 C-72.59404233 17.43394399 -65.91922922 7.05038893 -56 -1 C-38.08697144 -12.46433828 -17.47945264 -11.55687948 0 0 Z M-58.69140625 12.625 C-62.57352202 16.82819301 -65.38206973 21.48667075 -67 27 C-66.90669742 29.93003637 -66.90669742 29.93003637 -66 32 C-64.15274948 32.69159401 -64.15274948 32.69159401 -62 33 C-58.77008275 30.84672184 -58.51832355 30.30904584 -57.25 26.875 C-54.04334425 19.33207112 -49.36384585 14.08698717 -41.86328125 10.72265625 C-40.28461336 10.11038464 -38.67558269 9.57731362 -37.0625 9.0625 C-34.74017908 8.15827038 -34.74017908 8.15827038 -34.0625 5.5 C-34.041875 4.675 -34.02125 3.85 -34 3 C-34.66 2.34 -35.32 1.68 -36 1 C-44.89091539 1 -52.47032795 6.64816727 -58.69140625 12.625 Z " fill="#9EDBF9" transform="translate(294,115)"/>
<path d="M0 0 C3.62263872 2.75717804 6.81189303 5.75846107 10 9 C10.62003906 9.53882812 11.24007812 10.07765625 11.87890625 10.6328125 C23.38527733 20.87785879 29.24097904 37.57103171 30.15625 52.55859375 C30.52405184 64.09837639 28.5720401 75.80549576 23 86 C22.50628906 86.90878906 22.01257813 87.81757813 21.50390625 88.75390625 C18.74675713 93.63781704 15.82738563 98.31019029 12.55004883 102.86352539 C5.62591753 112.50666939 1.72349148 121.81851707 0.16259766 133.56958008 C-0.50387365 138.0545859 -1.40110703 140.23300434 -5 143 C-8.03564453 143.50120544 -8.03564453 143.50120544 -11.6328125 143.50170898 C-12.6189151 143.50981346 -12.6189151 143.50981346 -13.62493896 143.51808167 C-15.79208784 143.53056124 -17.95790606 143.5140853 -20.125 143.49609375 C-21.63427805 143.49624876 -23.14355651 143.49773805 -24.65283203 143.50050354 C-27.8136559 143.50188717 -30.9740258 143.48933616 -34.13476562 143.46655273 C-38.18355187 143.43816769 -42.23158397 143.44090564 -46.28042603 143.45364285 C-49.3963056 143.46060246 -52.51201128 143.45280762 -55.62786865 143.44038582 C-57.12057834 143.43587403 -58.61330671 143.43553215 -60.10601807 143.43945122 C-62.19346286 143.44236635 -64.2798735 143.42584422 -66.3671875 143.40405273 C-67.55425293 143.39864975 -68.74131836 143.39324677 -69.96435547 143.38768005 C-73.27826417 142.96446308 -74.67577907 142.36658046 -77 140 C-77.6875 137.06640625 -77.6875 137.06640625 -78 133.5625 C-79.72860545 119.18700342 -85.42877731 108.00612756 -94.0625 96.5 C-105.25841179 81.39853759 -109.55904957 64.57462445 -107.375 45.875 C-104.4463562 28.85823959 -95.38585377 13.92151249 -82 3 C-56.85699083 -14.36082667 -26.20331235 -16.44977838 0 0 Z M-81.74609375 22.8984375 C-92.4445396 36.07003057 -94.21450644 50.68854971 -93 67 C-90.86341633 78.34220701 -84.18558856 87.39419314 -77.66015625 96.64453125 C-77.11230469 97.42183594 -76.56445312 98.19914062 -76 99 C-75.54496094 99.64324219 -75.08992188 100.28648437 -74.62109375 100.94921875 C-69.11922536 109.17615049 -66.38085241 118.47659034 -64 128 C-47.5 128 -31 128 -14 128 C-12.35 122.72 -10.7 117.44 -9 112 C-5.78607442 104.30605696 -1.23321024 97.98891139 3.61303711 91.26049805 C12.81894604 78.39058858 17.261071 65.47511093 15.63671875 49.40625 C12.979169 34.92831026 6.11152115 22.01614166 -5.6328125 12.97265625 C-31.02504513 -4.1363552 -61.43897344 0.81955501 -81.74609375 22.8984375 Z " fill="#1E4E82" transform="translate(304,95)"/>
<path d="M0 0 C1.08539063 0.51949219 2.17078125 1.03898437 3.2890625 1.57421875 C3.88485107 1.85257568 4.48063965 2.13093262 5.09448242 2.41772461 C7.04770054 3.34035152 8.98056441 4.29851784 10.9140625 5.26171875 C12.29790957 5.93414456 13.6820279 6.60601241 15.06640625 7.27734375 C22.12753346 10.73361446 29.105134 14.32767117 35.9140625 18.26171875 C34.62897865 21.72109139 33.10752768 24.67073282 31.1015625 27.76171875 C24.65578445 38.40511324 22.38233927 48.92033489 19.9140625 61.26171875 C-20.3459375 61.26171875 -60.6059375 61.26171875 -102.0859375 61.26171875 C-102.5809375 53.83671875 -102.5809375 53.83671875 -103.0859375 46.26171875 C-92.41023437 40.86780105 -81.66864774 35.64483908 -70.8359375 30.57421875 C-69.35689399 29.88037412 -67.87789082 29.18644351 -66.39892578 28.49243164 C-62.67582428 26.74636227 -58.95126254 25.00343605 -55.22595215 23.26208496 C-53.16896395 22.3005301 -51.11229234 21.33830094 -49.05566406 20.37597656 C-36.82625627 14.65616078 -24.6008237 8.94103812 -12.1875 3.62890625 C-9.03179626 2.31718068 -9.03179626 2.31718068 -6.0703125 0.4375 C-3.0859375 -0.73828125 -3.0859375 -0.73828125 0 0 Z " fill="#E68922" transform="translate(165.0859375,82.73828125)"/>
<path d="M0 0 C1.19456314 -0.00630432 2.38912628 -0.01260864 3.61988831 -0.019104 C4.9105571 -0.01505554 6.20122589 -0.01100708 7.53100586 -0.00683594 C8.86714244 -0.00818316 10.20327855 -0.01012417 11.53941345 -0.01263428 C14.33784661 -0.01558185 17.13615201 -0.01129912 19.93457031 -0.00195312 C23.52496261 0.00945238 27.11505627 0.0028729 30.70543766 -0.00909805 C33.46347819 -0.01631723 36.22144764 -0.01402869 38.97949028 -0.00884247 C40.94824797 -0.00685637 42.91700841 -0.01293827 44.88575745 -0.019104 C46.67287392 -0.00964752 46.67287392 -0.00964752 48.49609375 0 C50.07469933 0.00238678 50.07469933 0.00238678 51.68519592 0.00482178 C54.18334961 0.25878906 54.18334961 0.25878906 56.18334961 2.25878906 C56.41040039 4.50537109 56.41040039 4.50537109 56.37866211 7.26660156 C56.3722168 8.25273437 56.36577148 9.23886719 56.35913086 10.25488281 C56.33399414 11.80369141 56.33399414 11.80369141 56.30834961 13.38378906 C56.29932617 14.4240625 56.29030273 15.46433594 56.28100586 16.53613281 C56.25738708 19.11057999 56.2244511 21.68457118 56.18334961 24.25878906 C57.17334961 24.25878906 58.16334961 24.25878906 59.18334961 24.25878906 C59.17287598 23.60281738 59.16240234 22.9468457 59.15161133 22.27099609 C59.11012458 19.30863248 59.08404699 16.3463299 59.05834961 13.38378906 C59.0415918 12.35125 59.02483398 11.31871094 59.00756836 10.25488281 C59.00112305 9.26875 58.99467773 8.28261719 58.98803711 7.26660156 C58.97756348 6.35539551 58.96708984 5.44418945 58.95629883 4.50537109 C59.18334961 2.25878906 59.18334961 2.25878906 61.18334961 0.25878906 C63.75743103 -0.00190735 63.75743103 -0.00190735 67.05419922 -0.01586914 C68.2856517 -0.02540115 69.51710419 -0.03493317 70.78587341 -0.04475403 C72.13581368 -0.04449261 73.48575397 -0.04355558 74.83569336 -0.04199219 C76.21570465 -0.04587793 77.59571474 -0.05021234 78.97572327 -0.05497742 C81.87008539 -0.06244509 84.76432555 -0.06214458 87.65869141 -0.05688477 C91.36905199 -0.05109098 95.07891324 -0.06801563 98.78919125 -0.09122944 C101.63992739 -0.10595743 104.49054305 -0.10683977 107.3413105 -0.10371971 C108.70926464 -0.10423346 110.07722543 -0.1094812 111.44514275 -0.11953163 C113.35775831 -0.13185836 115.27047452 -0.12317494 117.18310547 -0.11352539 C118.27183456 -0.11415482 119.36056366 -0.11478424 120.48228455 -0.11543274 C123.18334961 0.25878906 123.18334961 0.25878906 125.03707886 1.64028931 C126.62273073 3.87918197 126.52585704 5.42088026 126.47631836 8.14550781 C126.46882568 8.99072998 126.46133301 9.83595215 126.45361328 10.70678711 C126.42630127 11.77582275 126.39898926 12.8448584 126.37084961 13.94628906 C126.30897461 17.34941406 126.24709961 20.75253906 126.18334961 24.25878906 C135.75334961 23.92878906 145.32334961 23.59878906 155.18334961 23.25878906 C155.18334961 23.91878906 155.18334961 24.57878906 155.18334961 25.25878906 C100.07334961 25.25878906 44.96334961 25.25878906 -11.81665039 25.25878906 C-10.82665039 24.92878906 -9.83665039 24.59878906 -8.81665039 24.25878906 C-8.83236084 23.60281738 -8.84807129 22.9468457 -8.86425781 22.27099609 C-8.92648691 19.3086809 -8.96560207 16.34650296 -9.00415039 13.38378906 C-9.02928711 12.35125 -9.05442383 11.31871094 -9.08032227 10.25488281 C-9.08999023 9.26875 -9.0996582 8.28261719 -9.10961914 7.26660156 C-9.12532959 6.35539551 -9.14104004 5.44418945 -9.15722656 4.50537109 C-9.04483643 3.76399902 -8.93244629 3.02262695 -8.81665039 2.25878906 C-5.36494366 -0.04234876 -4.06630991 0.00614343 0 0 Z M14.18334961 1.25878906 C14.18334961 5.87878906 14.18334961 10.49878906 14.18334961 15.25878906 C17.48334961 15.25878906 20.78334961 15.25878906 24.18334961 15.25878906 C24.18334961 10.63878906 24.18334961 6.01878906 24.18334961 1.25878906 C20.88334961 1.25878906 17.58334961 1.25878906 14.18334961 1.25878906 Z M88.18334961 1.25878906 C88.18334961 5.87878906 88.18334961 10.49878906 88.18334961 15.25878906 C91.48334961 15.25878906 94.78334961 15.25878906 98.18334961 15.25878906 C98.18334961 10.63878906 98.18334961 6.01878906 98.18334961 1.25878906 C94.88334961 1.25878906 91.58334961 1.25878906 88.18334961 1.25878906 Z " fill="#DE8E35" transform="translate(75.816650390625,255.7412109375)"/>
<path d="M0 0 C1.57043101 0.01330874 3.14079971 0.03717648 4.7109375 0.0703125 C5.51273438 0.07933594 6.31453125 0.08835938 7.140625 0.09765625 C9.12252273 0.12125027 11.10426731 0.15712185 13.0859375 0.1953125 C13.0859375 5.1453125 13.0859375 10.0953125 13.0859375 15.1953125 C16.0559375 15.1953125 19.0259375 15.1953125 22.0859375 15.1953125 C22.0859375 10.2453125 22.0859375 5.2953125 22.0859375 0.1953125 C25.5444763 0.14155283 29.00218658 0.10175569 32.4609375 0.0703125 C33.44578125 0.05355469 34.430625 0.03679687 35.4453125 0.01953125 C36.85683594 0.00986328 36.85683594 0.00986328 38.296875 0 C39.16618652 -0.01047363 40.03549805 -0.02094727 40.93115234 -0.03173828 C43.0859375 0.1953125 43.0859375 0.1953125 45.0859375 2.1953125 C45.34472656 5.328125 45.34472656 5.328125 45.3515625 9.3203125 C45.35443268 10.37436279 45.35443268 10.37436279 45.35736084 11.44970703 C45.35872225 12.93587604 45.35502882 14.42205695 45.34667969 15.90820312 C45.33597904 18.18646896 45.34657589 20.46394627 45.359375 22.7421875 C45.3580534 24.18489758 45.35549099 25.62760716 45.3515625 27.0703125 C45.34930664 28.38773438 45.34705078 29.70515625 45.34472656 31.0625 C45.0859375 34.1953125 45.0859375 34.1953125 43.0859375 36.1953125 C41.07458496 36.44927979 41.07458496 36.44927979 38.57617188 36.45410156 C37.64180298 36.46040588 36.70743408 36.46671021 35.74475098 36.47320557 C34.73328003 36.4691571 33.72180908 36.46510864 32.6796875 36.4609375 C31.64404663 36.46285095 30.60840576 36.4647644 29.54138184 36.46673584 C27.34903725 36.46809847 25.15668461 36.46439664 22.96435547 36.45605469 C19.59975134 36.44535642 16.23568118 36.45594753 12.87109375 36.46875 C10.74479048 36.46742842 8.61848755 36.46486606 6.4921875 36.4609375 C4.97498108 36.46701019 4.97498108 36.46701019 3.42712402 36.47320557 C2.49275513 36.46690125 1.55838623 36.46059692 0.59570312 36.45410156 C-0.64101135 36.45171478 -0.64101135 36.45171478 -1.90270996 36.44927979 C-3.9140625 36.1953125 -3.9140625 36.1953125 -5.9140625 34.1953125 C-6.17285156 31.0625 -6.17285156 31.0625 -6.1796875 27.0703125 C-6.18160095 26.3676123 -6.1835144 25.66491211 -6.18548584 24.94091797 C-6.18684725 23.45474896 -6.18315382 21.96856805 -6.17480469 20.48242188 C-6.16410404 18.20415604 -6.17470089 15.92667873 -6.1875 13.6484375 C-6.1861784 12.20572742 -6.18361599 10.76301784 -6.1796875 9.3203125 C-6.17743164 8.00289062 -6.17517578 6.68546875 -6.17285156 5.328125 C-5.77563933 0.51960858 -4.77052798 0.2380503 0 0 Z " fill="#E78721" transform="translate(140.9140625,218.8046875)"/>
<path d="M0 0 C0.85428589 -0.00953201 1.70857178 -0.01906403 2.58874512 -0.02888489 C3.51272095 -0.02797348 4.43669678 -0.02706207 5.38867188 -0.02612305 C6.33552856 -0.03040817 7.28238525 -0.0346933 8.25793457 -0.03910828 C10.26195475 -0.04485711 12.26599579 -0.04534778 14.27001953 -0.04101562 C17.34508639 -0.03785448 20.41919274 -0.06131207 23.49414062 -0.08666992 C25.43814982 -0.08894264 27.38216162 -0.08964654 29.32617188 -0.08862305 C30.25014771 -0.09783279 31.17412354 -0.10704254 32.12609863 -0.11653137 C32.98038452 -0.11030258 33.83467041 -0.10407379 34.71484375 -0.09765625 C35.4682605 -0.09828568 36.22167725 -0.0989151 36.9979248 -0.0995636 C38.85742188 0.2746582 38.85742188 0.2746582 40.85742188 3.2746582 C41.11621094 6.52099609 41.11621094 6.52099609 41.12304688 10.49731445 C41.12591705 11.54924232 41.12591705 11.54924232 41.12884521 12.62242126 C41.13020454 14.10261393 41.12652569 15.58281861 41.11816406 17.06298828 C41.10744443 19.33238364 41.11807557 21.60099031 41.13085938 23.87036133 C41.12953805 25.30851412 41.12697621 26.74666642 41.12304688 28.18481445 C41.12079102 29.49587158 41.11853516 30.80692871 41.11621094 32.15771484 C40.85742188 35.2746582 40.85742188 35.2746582 38.85742188 37.2746582 C36.9979248 37.52862549 36.9979248 37.52862549 34.71484375 37.53344727 C33.86055786 37.53975159 33.00627197 37.54605591 32.12609863 37.55255127 C31.2021228 37.54850281 30.27814697 37.54445435 29.32617188 37.5402832 C28.37931519 37.54219666 27.4324585 37.54411011 26.45690918 37.54608154 C24.45287816 37.54744393 22.44883833 37.54374376 20.44482422 37.53540039 C17.36991634 37.52470168 14.29559274 37.53529392 11.22070312 37.5480957 C9.27669141 37.54677412 7.33268007 37.54421175 5.38867188 37.5402832 C4.00270813 37.5463559 4.00270813 37.5463559 2.58874512 37.55255127 C1.73445923 37.54624695 0.88017334 37.53994263 0 37.53344727 C-0.75341675 37.53185608 -1.5068335 37.53026489 -2.28308105 37.52862549 C-4.14257812 37.2746582 -4.14257812 37.2746582 -6.14257812 35.2746582 C-6.34206369 32.78899277 -6.42247555 30.41715071 -6.40820312 27.9309082 C-6.41011658 27.20601196 -6.41203003 26.48111572 -6.41400146 25.73425293 C-6.41536299 24.20100559 -6.41166876 22.6677467 -6.40332031 21.13452148 C-6.3926199 18.78383561 -6.40321621 16.43391398 -6.41601562 14.08325195 C-6.41469402 12.59496901 -6.41213162 11.10668655 -6.40820312 9.6184082 C-6.41225159 8.91317017 -6.41630005 8.20793213 -6.42047119 7.48132324 C-6.3681734 2.05538574 -5.58384198 0.03414703 0 0 Z M9.85742188 1.2746582 C9.85742188 6.2246582 9.85742188 11.1746582 9.85742188 16.2746582 C13.15742188 16.2746582 16.45742187 16.2746582 19.85742188 16.2746582 C19.85742188 11.3246582 19.85742188 6.3746582 19.85742188 1.2746582 C16.55742187 1.2746582 13.25742188 1.2746582 9.85742188 1.2746582 Z " fill="#E88921" transform="translate(118.142578125,179.725341796875)"/>
<path d="M0 0 C1.27617188 0.02320313 2.55234375 0.04640625 3.8671875 0.0703125 C5.78917969 0.09738281 5.78917969 0.09738281 7.75 0.125 C9.23113281 0.15980469 9.23113281 0.15980469 10.7421875 0.1953125 C12.18426691 3.07947133 11.83613637 5.61252778 11.8046875 8.8203125 C11.79566406 10.00882813 11.78664063 11.19734375 11.77734375 12.421875 C11.76574219 13.33710938 11.75414063 14.25234375 11.7421875 15.1953125 C14.7121875 15.1953125 17.6821875 15.1953125 20.7421875 15.1953125 C20.7421875 10.2453125 20.7421875 5.2953125 20.7421875 0.1953125 C24.2007263 0.14155283 27.65843658 0.10175569 31.1171875 0.0703125 C32.10203125 0.05355469 33.086875 0.03679687 34.1015625 0.01953125 C35.51308594 0.00986328 35.51308594 0.00986328 36.953125 0 C37.82243652 -0.01047363 38.69174805 -0.02094727 39.58740234 -0.03173828 C41.7421875 0.1953125 41.7421875 0.1953125 43.7421875 2.1953125 C44.00097656 5.23632812 44.00097656 5.23632812 44.0078125 9.1015625 C44.01068268 10.12231873 44.01068268 10.12231873 44.01361084 11.16369629 C44.01497213 12.60278696 44.01127955 14.04188994 44.00292969 15.48095703 C43.99222878 17.68680337 44.00282622 19.89183531 44.015625 22.09765625 C44.01430339 23.49479347 44.01174098 24.89193018 44.0078125 26.2890625 C44.00555664 27.56458984 44.00330078 28.84011719 44.00097656 30.15429688 C43.7421875 33.1953125 43.7421875 33.1953125 41.7421875 35.1953125 C39.7620697 35.44255066 39.7620697 35.44255066 37.30834961 35.43823242 C35.93198586 35.44284737 35.93198586 35.44284737 34.52781677 35.44755554 C33.53508255 35.44037003 32.54234833 35.43318451 31.51953125 35.42578125 C30.50371475 35.42532303 29.48789825 35.42486481 28.44129944 35.4243927 C26.29182773 35.42136846 24.14235825 35.41347706 21.99291992 35.40112305 C18.68986308 35.38286874 15.38708638 35.3806133 12.08398438 35.38085938 C9.99999756 35.37594429 7.91601265 35.37011601 5.83203125 35.36328125 C4.8372728 35.36216843 3.84251434 35.3610556 2.81761169 35.35990906 C1.90318802 35.35352921 0.98876434 35.34714935 0.04663086 35.34057617 C-1.1667672 35.33485847 -1.1667672 35.33485847 -2.40467834 35.32902527 C-4.2578125 35.1953125 -4.2578125 35.1953125 -5.2578125 34.1953125 C-5.37098534 31.84302931 -5.42197787 29.52119302 -5.42578125 27.16796875 C-5.42910965 26.46385361 -5.43243805 25.75973846 -5.43586731 25.0342865 C-5.44093905 23.54215144 -5.44327556 22.050005 -5.44311523 20.55786133 C-5.44530009 18.27080643 -5.46344799 15.98423497 -5.48242188 13.69726562 C-5.48535604 12.25000166 -5.48734068 10.80273539 -5.48828125 9.35546875 C-5.49546677 8.66896744 -5.50265228 7.98246613 -5.51005554 7.27516174 C-5.48648238 2.39227606 -5.3611204 0.3214101 0 0 Z " fill="#E7851C" transform="translate(88.2578125,218.8046875)"/>
<path d="M0 0 C1.21465942 -0.00637985 2.42931885 -0.0127597 3.68078613 -0.01933289 C4.99848999 -0.02044571 6.31619385 -0.02155853 7.67382812 -0.02270508 C9.03381384 -0.02591708 10.3937992 -0.02928111 11.75378418 -0.03279114 C14.60523276 -0.03878233 17.45665103 -0.040631 20.30810547 -0.04003906 C23.96688434 -0.03993733 27.62546964 -0.05360134 31.28420258 -0.07081127 C34.09284361 -0.0819129 36.90143753 -0.08395886 39.71009827 -0.08342934 C41.7165368 -0.08518773 43.72296064 -0.0960383 45.72937012 -0.10697937 C47.55135925 -0.10236443 47.55135925 -0.10236443 49.41015625 -0.09765625 C50.48334106 -0.09908127 51.55652588 -0.10050629 52.66223145 -0.10197449 C55.20507812 0.14526367 55.20507812 0.14526367 57.20507812 2.14526367 C57.127542 6.33221457 56.87374519 8.43944843 53.95507812 11.52026367 C51.20507812 13.14526367 51.20507812 13.14526367 48.51757812 13.58276367 C47.75445312 13.76838867 46.99132812 13.95401367 46.20507812 14.14526367 C45.91632813 14.86713867 45.62757813 15.58901367 45.33007812 16.33276367 C43.23612175 21.5676546 38.53628112 24.80377183 33.45507812 27.02026367 C26.37232338 29.29002678 19.59711403 29.14196179 12.83007812 26.02026367 C7.37841441 22.97425474 4.64352468 19.30293351 1.20507812 14.14526367 C0.25632813 13.69151367 -0.69242188 13.23776367 -1.66992188 12.77026367 C-5.14450102 10.96348252 -6.79665775 9.50234741 -8.79492188 6.14526367 C-8.66992188 3.39526367 -8.66992188 3.39526367 -7.79492188 1.14526367 C-5.1043007 -0.20004692 -3.01260857 0.01070035 0 0 Z " fill="#1F4E82" transform="translate(240.794921875,259.854736328125)"/>
<path d="M0 0 C0.87454834 0.00523682 1.74909668 0.01047363 2.65014648 0.01586914 C3.59438477 0.0190918 4.53862305 0.02231445 5.51147461 0.02563477 C6.50469727 0.03401367 7.49791992 0.04239258 8.52124023 0.05102539 C9.51833008 0.05553711 10.51541992 0.06004883 11.54272461 0.06469727 C14.0147551 0.07652516 16.48675496 0.09446124 18.95874023 0.11352539 C18.95874023 5.06352539 18.95874023 10.01352539 18.95874023 15.11352539 C22.58874023 15.11352539 26.21874023 15.11352539 29.95874023 15.11352539 C29.95874023 10.49352539 29.95874023 5.87352539 29.95874023 1.11352539 C34.0705195 1.09061145 38.18213681 1.07068588 42.29394531 1.05859375 C43.69369252 1.0535546 45.09343444 1.04672323 46.49316406 1.03808594 C48.501198 1.02600219 50.50926981 1.02082732 52.51733398 1.01586914 C54.33189087 1.00801392 54.33189087 1.00801392 56.18310547 1 C58.95874023 1.11352539 58.95874023 1.11352539 59.95874023 2.11352539 C59.95874023 8.71352539 59.95874023 15.31352539 59.95874023 22.11352539 C39.16874023 22.11352539 18.37874023 22.11352539 -3.04125977 22.11352539 C-3.04125977 0.16914075 -3.04125977 0.16914075 0 0 Z " fill="#E9861C" transform="translate(71.041259765625,256.886474609375)"/>
<path d="M0 0 C3.625 1.125 3.625 1.125 4.8671875 2.734375 C5.91468297 4.82936594 6.78486758 6.9390999 7.625 9.125 C8.20750849 10.3753846 8.7907784 11.62541491 9.375 12.875 C10.625 16.125 10.625 16.125 10.625 20.125 C14.585 20.125 18.545 20.125 22.625 20.125 C22.73972656 19.26390625 22.85445313 18.4028125 22.97265625 17.515625 C23.64088522 14.0424349 24.68555047 11.12737929 26.0625 7.875 C26.71025391 6.32039062 26.71025391 6.32039062 27.37109375 4.734375 C28.625 2.125 28.625 2.125 30.625 0.125 C33.625 -0.125 33.625 -0.125 36.625 0.125 C38.625 2.125 38.625 2.125 38.9375 5.4375 C38.59976251 9.42280244 37.78179857 10.84986143 35.625 14.125 C32.18177726 21.36437582 32.08409787 28.19196088 31.9375 36.125 C31.90333984 37.37667969 31.86917969 38.62835938 31.83398438 39.91796875 C31.75199031 42.98688957 31.68267981 46.05554206 31.625 49.125 C28.325 49.125 25.025 49.125 21.625 49.125 C21.625 42.195 21.625 35.265 21.625 28.125 C18.325 28.125 15.025 28.125 11.625 28.125 C11.625 35.055 11.625 41.985 11.625 49.125 C8.325 49.125 5.025 49.125 1.625 49.125 C1.6156543 48.32916504 1.60630859 47.53333008 1.59667969 46.71337891 C1.54253072 43.05832349 1.45896924 39.40448716 1.375 35.75 C1.36082031 34.49832031 1.34664062 33.24664062 1.33203125 31.95703125 C1.09386715 22.85916278 -0.29314264 15.74778604 -5.375 8.125 C-5.625 5.0625 -5.625 5.0625 -5.375 2.125 C-3.375 0.125 -3.375 0.125 0 0 Z " fill="#10467B" transform="translate(249.375,162.875)"/>
<path d="M0 0 C1.90724098 -0.01429802 1.90724098 -0.01429802 3.85301208 -0.02888489 C5.2471418 -0.02862347 6.64127153 -0.02768645 8.03540039 -0.02612305 C9.46025213 -0.03000867 10.88510271 -0.03434306 12.30995178 -0.03910828 C15.29846956 -0.04657634 18.28686923 -0.04627514 21.27539062 -0.04101562 C25.10681339 -0.03522168 28.93775262 -0.05214677 32.76909542 -0.0753603 C35.71247692 -0.09008684 38.65574171 -0.09097082 41.59915352 -0.08785057 C43.01176473 -0.08836438 44.42438237 -0.0936134 45.83695793 -0.10366249 C47.81184077 -0.1159865 49.78682104 -0.10730695 51.76171875 -0.09765625 C52.88597763 -0.09828568 54.01023651 -0.0989151 55.16856384 -0.0995636 C57.94555664 0.2746582 57.94555664 0.2746582 59.80860901 1.61042786 C61.58499348 4.21064695 61.32763854 6.21800301 60.94555664 9.2746582 C59.80761719 10.93690491 59.80761719 10.93690491 57.94555664 12.2746582 C55.17529297 12.66233826 55.17529297 12.66233826 51.77758789 12.67871094 C49.87046021 12.6977372 49.87046021 12.6977372 47.92480469 12.71714783 C46.53588702 12.71509653 45.14697047 12.71210862 43.75805664 12.70825195 C42.33463287 12.7128124 40.91121132 12.71811757 39.48779297 12.72413635 C36.50519869 12.73307144 33.52287212 12.73063965 30.5402832 12.72070312 C26.71657613 12.70920616 22.89379155 12.72943262 19.07020569 12.75862026 C16.13108444 12.77695811 13.19218533 12.77669486 10.25302124 12.77098274 C8.84319768 12.77082926 7.43335931 12.77689568 6.02359009 12.78927422 C4.05361988 12.80413564 2.08349803 12.79090231 0.11352539 12.77636719 C-1.56833862 12.77611794 -1.56833862 12.77611794 -3.28417969 12.77586365 C-6.05444336 12.2746582 -6.05444336 12.2746582 -7.95166016 10.43861389 C-9.50832837 7.38401439 -8.96924808 5.51165953 -8.05444336 2.2746582 C-5.32427593 -0.45550922 -3.82156805 0.01567248 0 0 Z " fill="#255284" transform="translate(239.054443359375,242.725341796875)"/>
<path d="M0 0 C0.89432739 -0.00630432 1.78865479 -0.01260864 2.71008301 -0.019104 C4.16166809 -0.01303131 4.16166809 -0.01303131 5.64257812 -0.00683594 C6.6338269 -0.00874939 7.62507568 -0.01066284 8.6463623 -0.01263428 C10.7445501 -0.01399679 12.84274631 -0.01029576 14.94091797 -0.00195312 C18.16067358 0.00874535 21.37987121 -0.0018463 24.59960938 -0.01464844 C26.63476686 -0.01332685 28.669924 -0.01076449 30.70507812 -0.00683594 C31.67280151 -0.0108844 32.6405249 -0.01493286 33.63757324 -0.019104 C34.53190063 -0.01279968 35.42622803 -0.00649536 36.34765625 0 C37.13660278 0.00159119 37.92554932 0.00318237 38.73840332 0.00482178 C40.67382812 0.25878906 40.67382812 0.25878906 42.67382812 2.25878906 C42.91925953 4.90666696 43.04732198 7.4578273 43.08789062 10.11035156 C43.10725677 10.88438324 43.12662292 11.65841492 43.14657593 12.4559021 C43.20642642 14.93175182 43.25277823 17.4076479 43.29882812 19.88378906 C43.33700294 21.56089284 43.37605438 23.2379769 43.41601562 24.91503906 C43.51213221 29.0294626 43.59614251 33.14397792 43.67382812 37.25878906 C44.34961914 37.26813477 45.02541016 37.27748047 45.72167969 37.28710938 C48.78979922 37.34086207 51.856402 37.42449898 54.92382812 37.50878906 C55.98730469 37.52296875 57.05078125 37.53714844 58.14648438 37.55175781 C59.17128906 37.58398438 60.19609375 37.61621094 61.25195312 37.64941406 C62.19458008 37.67036133 63.13720703 37.69130859 64.10839844 37.71289062 C67.51841273 38.43850844 68.67160398 39.41107212 70.67382812 42.25878906 C71.15966797 45.51098633 71.15966797 45.51098633 71.13476562 49.32519531 C71.13384918 50.00049789 71.13293274 50.67580048 71.13198853 51.37156677 C71.1259634 52.79457661 71.11024969 54.2175744 71.08544922 55.64038086 C71.04888847 57.8176953 71.04443038 59.99330873 71.04492188 62.17089844 C70.96935899 72.81549276 70.96935899 72.81549276 68.67382812 76.25878906 C72.96382813 76.25878906 77.25382813 76.25878906 81.67382812 76.25878906 C81.67382812 76.58878906 81.67382812 76.91878906 81.67382812 77.25878906 C80.89930801 77.26909653 80.1247879 77.27940399 79.32679749 77.2900238 C72.04253891 77.38783203 64.75836867 77.49032217 57.47425175 77.59812832 C53.72904014 77.65339137 49.98382078 77.70681661 46.23852539 77.75610352 C42.62694227 77.80369741 39.01545681 77.85603813 35.40398979 77.91172981 C34.02325293 77.932176 32.64248926 77.95088528 31.2617054 77.96786308 C29.33399499 77.99185687 27.40637064 78.02249171 25.47875977 78.0534668 C23.82995567 78.07678322 23.82995567 78.07678322 22.14784241 78.10057068 C19.73076739 77.98167098 19.73076739 77.98167098 18.67382812 79.25878906 C18.51668158 80.89135664 18.42297399 82.53014244 18.35742188 84.16894531 C18.31552734 85.15830078 18.27363281 86.14765625 18.23046875 87.16699219 C18.19115234 88.20791016 18.15183594 89.24882812 18.11132812 90.32128906 C18.04655273 91.8884668 18.04655273 91.8884668 17.98046875 93.48730469 C17.87401588 96.0776579 17.77200053 98.66811092 17.67382812 101.25878906 C16.68382812 101.25878906 15.69382812 101.25878906 14.67382812 101.25878906 C14.64877197 100.59758057 14.62371582 99.93637207 14.59790039 99.25512695 C14.4822971 96.27696601 14.35941059 93.29914987 14.23632812 90.32128906 C14.19701172 89.28037109 14.15769531 88.23945313 14.1171875 87.16699219 C14.07529297 86.17763672 14.03339844 85.18828125 13.99023438 84.16894531 C13.95357666 83.25250244 13.91691895 82.33605957 13.87915039 81.3918457 C13.90378949 79.27671626 13.90378949 79.27671626 12.67382812 78.25878906 C10.81806158 78.15968814 8.95850787 78.13079649 7.10009766 78.12939453 C5.90861115 78.12624237 4.71712463 78.12309021 3.48953247 78.11984253 C2.19167816 78.12186676 0.89382385 78.12389099 -0.44335938 78.12597656 C-1.77995827 78.12530332 -3.11655704 78.12433312 -4.45315552 78.12307739 C-7.25930951 78.12160037 -10.06543173 78.12375443 -12.87158203 78.12841797 C-16.46858194 78.13410428 -20.06550706 78.13084328 -23.6625042 78.1248455 C-26.42486127 78.12123062 -29.18720065 78.12238294 -31.94955826 78.1249733 C-33.92103372 78.12596533 -35.89250986 78.12292701 -37.86398315 78.11984253 C-39.06177399 78.12299469 -40.25956482 78.12614685 -41.49365234 78.12939453 C-42.54986786 78.13019012 -43.60608337 78.13098572 -44.69430542 78.13180542 C-47.43598705 78.14531581 -47.43598705 78.14531581 -50.32617188 79.25878906 C-50.32617188 86.51878906 -50.32617188 93.77878906 -50.32617188 101.25878906 C-51.31617187 100.92878906 -52.30617188 100.59878906 -53.32617188 100.25878906 C-52.83117187 99.76378906 -52.83117187 99.76378906 -52.32617188 99.25878906 C-52.23916845 97.62406024 -52.21916125 95.98564851 -52.22851562 94.34863281 C-52.23334961 92.86459961 -52.23334961 92.86459961 -52.23828125 91.35058594 C-52.24666016 90.30966797 -52.25503906 89.26875 -52.26367188 88.19628906 C-52.26818359 87.15150391 -52.27269531 86.10671875 -52.27734375 85.03027344 C-52.28917275 82.43972246 -52.30565498 79.84928348 -52.32617188 77.25878906 C-48.50623447 76.20135428 -45.04670881 76.15952483 -41.07617188 76.19628906 C-39.18125 76.20982422 -39.18125 76.20982422 -37.24804688 76.22363281 C-35.80171875 76.24103516 -35.80171875 76.24103516 -34.32617188 76.25878906 C-33.99617188 75.59878906 -33.66617188 74.93878906 -33.32617188 74.25878906 C-32.46506554 74.26211998 -32.46506554 74.26211998 -31.58656311 74.26551819 C-25.63364278 74.28757163 -19.68073397 74.3026959 -13.7277832 74.3137207 C-11.50349456 74.31876223 -9.27920925 74.32559529 -7.05493164 74.33422852 C-3.86538879 74.34630205 -0.67588959 74.35201902 2.51367188 74.35644531 C3.51470444 74.3616066 4.515737 74.36676788 5.54710388 74.37208557 C6.92842247 74.37219887 6.92842247 74.37219887 8.33764648 74.37231445 C9.15261093 74.37453506 9.96757538 74.37675568 10.80723572 74.37904358 C12.68860669 74.46407152 12.68860669 74.46407152 13.67382812 73.25878906 C13.77403742 70.97931115 13.80464116 68.69671771 13.80664062 66.41503906 C13.80807571 65.38860291 13.80807571 65.38860291 13.80953979 64.34143066 C13.81022142 62.89217029 13.80836835 61.44290688 13.80419922 59.99365234 C13.79885065 57.76815978 13.80414472 55.54286905 13.81054688 53.31738281 C13.80988609 51.91243445 13.80860492 50.50748621 13.80664062 49.10253906 C13.80494873 47.1718457 13.80494873 47.1718457 13.80322266 45.20214844 C14.01068955 42.37052749 14.01068955 42.37052749 12.67382812 41.25878906 C11.23093026 41.16583091 9.78353028 41.14132393 8.33764648 41.14526367 C7.41676743 41.1453392 6.49588837 41.14541473 5.54710388 41.14549255 C4.04555504 41.15323448 4.04555504 41.15323448 2.51367188 41.16113281 C0.9842672 41.16325523 0.9842672 41.16325523 -0.57603455 41.16542053 C-3.84694295 41.1710381 -7.11778401 41.18359356 -10.38867188 41.19628906 C-12.60025943 41.2013018 -14.81184806 41.2058651 -17.0234375 41.20996094 C-22.45770544 41.22101323 -27.89193385 41.23776843 -33.32617188 41.25878906 C-33.32617188 40.59878906 -33.32617188 39.93878906 -33.32617188 39.25878906 C-24.08617187 39.25878906 -14.84617187 39.25878906 -5.32617188 39.25878906 C-5.65617187 38.59878906 -5.98617187 37.93878906 -6.32617188 37.25878906 C-6.43710504 34.65605474 -6.49027265 32.0808754 -6.49414062 29.47753906 C-6.49913322 28.32360657 -6.49913322 28.32360657 -6.50422668 27.1463623 C-6.50929192 25.51896768 -6.51163513 23.89156266 -6.51147461 22.26416016 C-6.51366318 19.76870732 -6.53182841 17.27369501 -6.55078125 14.77832031 C-6.55371479 13.19889475 -6.55569985 11.61946707 -6.55664062 10.04003906 C-6.56382614 9.29105347 -6.57101166 8.54206787 -6.57841492 7.77038574 C-6.55320918 2.08370773 -5.86275482 0.01182429 0 0 Z M-5.32617188 3.25878906 C-5.52565744 5.74445449 -5.6060693 8.11629656 -5.59179688 10.60253906 C-5.59371033 11.3274353 -5.59562378 12.05233154 -5.59759521 12.79919434 C-5.59895674 14.33244168 -5.59526251 15.86570056 -5.58691406 17.39892578 C-5.57621365 19.74961165 -5.58680996 22.09953329 -5.59960938 24.45019531 C-5.59828777 25.93847825 -5.59572537 27.42676072 -5.59179688 28.91503906 C-5.59584534 29.6202771 -5.5998938 30.32551514 -5.60406494 31.05212402 C-5.67894584 35.10480593 -5.67894584 35.10480593 -3.32617188 38.25878906 C-1.40245322 38.56358778 -1.40245322 38.56358778 0.81640625 38.51757812 C1.67069214 38.52388245 2.52497803 38.53018677 3.40515137 38.53668213 C4.79111511 38.53060944 4.79111511 38.53060944 6.20507812 38.52441406 C7.15193481 38.52632751 8.0987915 38.52824097 9.07434082 38.5302124 C11.07837184 38.53157479 13.08241167 38.52787462 15.08642578 38.51953125 C18.16133366 38.50883254 21.23565726 38.51942478 24.31054688 38.53222656 C26.25455859 38.53090498 28.19856993 38.5283426 30.14257812 38.52441406 C31.06655396 38.52846252 31.99052979 38.53251099 32.94250488 38.53668213 C33.79679077 38.53037781 34.65107666 38.52407349 35.53125 38.51757812 C36.28466675 38.51598694 37.0380835 38.51439575 37.81433105 38.51275635 C39.91971819 38.41617588 39.91971819 38.41617588 41.67382812 36.25878906 C41.98650786 33.00324241 41.98650786 33.00324241 41.93945312 29.16894531 C41.94136658 28.46861679 41.94328003 27.76828827 41.94525146 27.04673767 C41.94661305 25.56476482 41.94291842 24.08278004 41.93457031 22.60083008 C41.9238859 20.33354822 41.93445766 18.06706157 41.94726562 15.79980469 C41.94594371 14.36034981 41.94338066 12.92089544 41.93945312 11.48144531 C41.93719727 10.16926025 41.93494141 8.8570752 41.93261719 7.50512695 C41.92715168 4.11137842 41.92715168 4.11137842 39.67382812 1.25878906 C37.75742635 0.80923037 37.75742635 0.80923037 35.53125 0.88647461 C34.67696411 0.88024582 33.82267822 0.87401703 32.94250488 0.86759949 C32.01852905 0.87680923 31.09455322 0.88601898 30.14257812 0.89550781 C29.19572144 0.89500931 28.24886475 0.8945108 27.27331543 0.89399719 C25.26926579 0.89634011 23.26521334 0.90608138 21.26123047 0.92260742 C18.18625697 0.94619373 15.11215026 0.94317084 12.03710938 0.93652344 C10.09309377 0.94210014 8.14908182 0.94920997 6.20507812 0.95800781 C5.28110229 0.95709641 4.35712646 0.956185 3.40515137 0.95524597 C2.55086548 0.96477798 1.69657959 0.97431 0.81640625 0.98413086 C-0.31371887 0.99104195 -0.31371887 0.99104195 -1.4666748 0.99809265 C-3.57172378 1.10295159 -3.57172378 1.10295159 -5.32617188 3.25878906 Z M17.67382812 42.25878906 C17.36115957 45.53079545 17.36115957 45.53079545 17.40820312 49.38378906 C17.40628967 50.08648926 17.40437622 50.78918945 17.40240479 51.51318359 C17.40104337 52.9993526 17.4047368 54.48553351 17.41308594 55.97167969 C17.42378659 58.24994552 17.41318973 60.52742283 17.40039062 62.80566406 C17.40171223 64.24837414 17.40427464 65.69108373 17.40820312 67.13378906 C17.41045898 68.45121094 17.41271484 69.76863281 17.41503906 71.12597656 C17.34217374 74.35813036 17.34217374 74.35813036 19.67382812 76.25878906 C21.76041683 76.56426798 21.76041683 76.56426798 24.18359375 76.51757812 C25.11796265 76.52388245 26.05233154 76.53018677 27.01501465 76.53668213 C28.0264856 76.53263367 29.03795654 76.52858521 30.08007812 76.52441406 C31.11571899 76.52632751 32.15135986 76.52824097 33.21838379 76.5302124 C35.41072838 76.53157503 37.60308101 76.5278732 39.79541016 76.51953125 C43.16001429 76.50883299 46.52408444 76.51942409 49.88867188 76.53222656 C52.01497514 76.53090498 54.14127808 76.52834262 56.26757812 76.52441406 C57.78478455 76.53048676 57.78478455 76.53048676 59.3326416 76.53668213 C60.2670105 76.53037781 61.20137939 76.52407349 62.1640625 76.51757812 C62.98853882 76.51598694 63.81301514 76.51439575 64.66247559 76.51275635 C66.90259681 76.43865747 66.90259681 76.43865747 68.67382812 74.25878906 C68.98649668 70.98678268 68.98649668 70.98678268 68.93945312 67.13378906 C68.94136658 66.43108887 68.94328003 65.72838867 68.94525146 65.00439453 C68.94661288 63.51822553 68.94291945 62.03204461 68.93457031 60.54589844 C68.92386966 58.26763261 68.93446652 55.99015529 68.94726562 53.71191406 C68.94594402 52.26920398 68.94338161 50.8264944 68.93945312 49.38378906 C68.93719727 48.06636719 68.93494141 46.74894531 68.93261719 45.39160156 C69.00548251 42.15944776 69.00548251 42.15944776 66.67382812 40.25878906 C64.58723942 39.95331015 64.58723942 39.95331015 62.1640625 40 C61.2296936 39.99369568 60.29532471 39.98739136 59.3326416 39.980896 C57.81543518 39.98696869 57.81543518 39.98696869 56.26757812 39.99316406 C55.23193726 39.99125061 54.19629639 39.98933716 53.12927246 39.98736572 C50.93692787 39.98600309 48.74457524 39.98970492 46.55224609 39.99804688 C43.18764196 40.00874514 39.82357181 39.99815403 36.45898438 39.98535156 C34.33268111 39.98667314 32.20637817 39.98923551 30.08007812 39.99316406 C29.06860718 39.9891156 28.05713623 39.98506714 27.01501465 39.980896 C26.08064575 39.98720032 25.14627686 39.99350464 24.18359375 40 C23.35911743 40.00159119 22.53464111 40.00318237 21.68518066 40.00482178 C19.44505944 40.07892066 19.44505944 40.07892066 17.67382812 42.25878906 Z " fill="#2D3846" transform="translate(117.326171875,178.7412109375)"/>
<path d="M0 0 C0.33 0 0.66 0 1 0 C1 8.58 1 17.16 1 26 C4.63 26 8.26 26 12 26 C12 19.07 12 12.14 12 5 C15.3 5 18.6 5 22 5 C22 11.93 22 18.86 22 26 C25.63 26 29.26 26 33 26 C33 17.42 33 8.84 33 0 C33.33 0 33.66 0 34 0 C34.495 8.91 34.495 8.91 35 18 C35.66 18 36.32 18 37 18 C36.69217504 19.64671412 36.37860766 21.29235576 36.0625 22.9375 C35.88847656 23.85402344 35.71445312 24.77054688 35.53515625 25.71484375 C35 28 35 28 34 29 C31.50245859 29.11327366 29.0336001 29.16417191 26.53515625 29.16796875 C25.4123954 29.17296135 25.4123954 29.17296135 24.26695251 29.17805481 C22.68066016 29.18312693 21.0943571 29.18546305 19.50805664 29.18530273 C17.07615631 29.18748773 14.64471051 29.20563581 12.21289062 29.22460938 C10.67448072 29.22754349 9.13606866 29.22952817 7.59765625 29.23046875 C6.86740738 29.23765427 6.13715851 29.24483978 5.38478088 29.25224304 C0.22882307 29.22882307 0.22882307 29.22882307 -2 27 C-1.34 27 -0.68 27 0 27 C0 18.09 0 9.18 0 0 Z " fill="#A1DCF4" transform="translate(249,186)"/>
<path d="M0 0 C0.33 0 0.66 0 1 0 C1.02505615 0.96413818 1.0501123 1.92827637 1.07592773 2.92163086 C1.16985306 6.48687842 1.27010939 10.05192433 1.37231445 13.61694336 C1.41571985 15.16214289 1.45739071 16.70739214 1.49731445 18.25268555 C1.55488199 20.46939096 1.61861424 22.6858448 1.68359375 24.90234375 C1.70030624 25.5971434 1.71701874 26.29194305 1.73423767 27.00779724 C1.56502856 30.28762029 1.56502856 30.28762029 3 33 C4.34015221 33.15582303 5.68758903 33.25044142 7.03515625 33.31640625 C8.24848633 33.37924805 8.24848633 33.37924805 9.48632812 33.44335938 C10.7615332 33.50233398 10.7615332 33.50233398 12.0625 33.5625 C13.34350586 33.62727539 13.34350586 33.62727539 14.65039062 33.69335938 C16.76672037 33.79976702 18.88333813 33.90041731 21 34 C22.17801202 37.53403605 22.14349055 40.72981161 22.1328125 44.40625 C22.13376923 45.12735962 22.13472595 45.84846924 22.13571167 46.59143066 C22.1363915 48.11450284 22.13455093 49.63757794 22.13037109 51.16064453 C22.12502003 53.49127717 22.13032269 55.8217171 22.13671875 58.15234375 C22.13605793 59.63281293 22.1347767 61.11328198 22.1328125 62.59375 C22.13483673 63.2906897 22.13686096 63.98762939 22.13894653 64.70568848 C22.12420003 67.75015729 21.97095844 70.08712468 21 73 C22.98 73.99 22.98 73.99 25 75 C24.67 82.26 24.34 89.52 24 97 C23.01 97 22.02 97 21 97 C20.97494385 96.3387915 20.9498877 95.67758301 20.92407227 94.99633789 C20.80846898 92.01817695 20.68558246 89.0403608 20.5625 86.0625 C20.52318359 85.02158203 20.48386719 83.98066406 20.44335938 82.90820312 C20.40146484 81.91884766 20.35957031 80.92949219 20.31640625 79.91015625 C20.27974854 78.99371338 20.24309082 78.07727051 20.20532227 77.13305664 C20.22996136 75.0179272 20.22996136 75.0179272 19 74 C17.14423345 73.90089908 15.28467974 73.87200743 13.42626953 73.87060547 C12.23478302 73.86745331 11.04329651 73.86430115 9.81570435 73.86105347 C8.51785004 73.8630777 7.21999573 73.86510193 5.8828125 73.8671875 C4.54621361 73.86651426 3.20961483 73.86554406 1.87301636 73.86428833 C-0.93313763 73.8628113 -3.73925985 73.86496537 -6.54541016 73.86962891 C-10.14241006 73.87531522 -13.73933518 73.87205422 -17.33633232 73.86605644 C-20.0986894 73.86244156 -22.86102877 73.86359388 -25.62338638 73.86618423 C-27.59486184 73.86717627 -29.56633798 73.86413795 -31.53781128 73.86105347 C-32.73560211 73.86420563 -33.93339294 73.86735779 -35.16748047 73.87060547 C-36.22369598 73.87140106 -37.2799115 73.87219666 -38.36813354 73.87301636 C-41.10981518 73.88652675 -41.10981518 73.88652675 -44 75 C-44 82.26 -44 89.52 -44 97 C-44.99 96.67 -45.98 96.34 -47 96 C-46.505 95.505 -46.505 95.505 -46 95 C-45.91299658 93.36527118 -45.89298937 91.72685945 -45.90234375 90.08984375 C-45.90717773 88.60581055 -45.90717773 88.60581055 -45.91210938 87.09179688 C-45.92048828 86.05087891 -45.92886719 85.00996094 -45.9375 83.9375 C-45.94201172 82.89271484 -45.94652344 81.84792969 -45.95117188 80.77148438 C-45.96300087 78.1809334 -45.97948311 75.59049441 -46 73 C-42.18006259 71.94256522 -38.72053693 71.90073577 -34.75 71.9375 C-32.85507813 71.95103516 -32.85507813 71.95103516 -30.921875 71.96484375 C-29.47554687 71.98224609 -29.47554687 71.98224609 -28 72 C-27.67 71.34 -27.34 70.68 -27 70 C-26.13889366 70.00333092 -26.13889366 70.00333092 -25.26039124 70.00672913 C-19.3074709 70.02878257 -13.3545621 70.04390684 -7.40161133 70.05493164 C-5.17732268 70.05997317 -2.95303737 70.06680623 -0.72875977 70.07543945 C2.46078309 70.08751298 5.65028229 70.09322996 8.83984375 70.09765625 C9.84087631 70.10281754 10.84190887 70.10797882 11.87327576 70.11329651 C13.25459435 70.11340981 13.25459435 70.11340981 14.66381836 70.11352539 C15.47878281 70.115746 16.29374725 70.11796661 17.13340759 70.12025452 C19.01477856 70.20528245 19.01477856 70.20528245 20 69 C20.1002093 66.72052208 20.13081303 64.43792865 20.1328125 62.15625 C20.13424759 61.12981384 20.13424759 61.12981384 20.13571167 60.0826416 C20.1363933 58.63338123 20.13454023 57.18411782 20.13037109 55.73486328 C20.12502252 53.50937072 20.1303166 51.28407999 20.13671875 49.05859375 C20.13605797 47.65364539 20.1347768 46.24869715 20.1328125 44.84375 C20.13112061 42.91305664 20.13112061 42.91305664 20.12939453 40.94335938 C20.33686143 38.11173843 20.33686143 38.11173843 19 37 C17.55710213 36.90704185 16.10970215 36.88253487 14.66381836 36.88647461 C13.7429393 36.88655014 12.82206024 36.88662567 11.87327576 36.88670349 C10.37172691 36.89444542 10.37172691 36.89444542 8.83984375 36.90234375 C7.31043907 36.90446617 7.31043907 36.90446617 5.75013733 36.90663147 C2.47922893 36.91224903 -0.79161213 36.9248045 -4.0625 36.9375 C-6.27408756 36.94251274 -8.48567618 36.94707604 -10.69726562 36.95117188 C-16.13153357 36.96222416 -21.56576197 36.97897937 -27 37 C-27 36.34 -27 35.68 -27 35 C-17.76 35 -8.52 35 1 35 C0.67 34.34 0.34 33.68 0 33 C-0.08649451 30.51900266 -0.11565054 28.06655072 -0.09765625 25.5859375 C-0.0962413 24.85629791 -0.09482635 24.12665833 -0.09336853 23.37490845 C-0.08776531 21.04156415 -0.07521235 18.70831536 -0.0625 16.375 C-0.05748541 14.79427222 -0.05292243 13.21354293 -0.04882812 11.6328125 C-0.03779484 7.75517146 -0.02052811 3.87760193 0 0 Z " fill="#3D4042" transform="translate(111,183)"/>
<path d="M0 0 C3.65701274 2.22032916 3.97367247 6.06972248 5 10 C5.51603495 12.55150615 5.97448007 15.11532981 6.375 17.6875 C6.58898437 18.97011719 6.80296875 20.25273438 7.0234375 21.57421875 C7 25 7 25 5.23046875 27.4296875 C2.27203802 29.51250563 0.54460873 29.52792045 -3 29 C-5.60518446 26.9330147 -6.47829139 25.18796821 -7.203125 21.98046875 C-7.3784375 21.20509766 -7.55375 20.42972656 -7.734375 19.63085938 C-7.90453125 18.82455078 -8.0746875 18.01824219 -8.25 17.1875 C-8.435625 16.39279297 -8.62125 15.59808594 -8.8125 14.77929688 C-9.7966324 10.27241781 -10.41088458 6.51621388 -9 2 C-5.53076119 -0.31282587 -4.07794425 -0.42478586 0 0 Z " fill="#E78C2B" transform="translate(256,44)"/>
<path d="M0 0 C3.73781379 0.1359205 6.13526148 0.24335379 9 2.75 C10.48862377 6.09940348 9.56643287 8.48632565 8.30566406 11.85546875 C7.44466035 13.96082057 6.54245785 16.04365967 5.625 18.125 C5.32078125 18.84042969 5.0165625 19.55585937 4.703125 20.29296875 C4.40148437 20.98261719 4.09984375 21.67226562 3.7890625 22.3828125 C3.51787598 23.00559082 3.24668945 23.62836914 2.96728516 24.27001953 C1.85932478 26.25159632 0.768832 27.57430058 -1 29 C-4.42964212 28.92854912 -6.28404213 28.71276163 -8.75 26.2578125 C-10 24 -10 24 -9.8125 21.58984375 C-4.61146497 4.61146497 -4.61146497 4.61146497 0 0 Z " fill="#E88E2D" transform="translate(303,51)"/>
<path d="M0 0 C1.875 1.0625 1.875 1.0625 3 3 C3.8125 6.1875 3.8125 6.1875 3 10 C0.00121349 13.15441216 -3.41779187 15.54874615 -7 18 C-7.73734375 18.54527344 -8.4746875 19.09054688 -9.234375 19.65234375 C-12.53698602 21.96289138 -14.26512507 23 -18.375 23 C-21 22 -21 22 -23 19 C-23.02528121 15.94940043 -22.75735595 13.89052388 -20.73925781 11.51757812 C-19.08962354 10.01010081 -17.38864044 8.62214267 -15.625 7.25 C-15.03460938 6.76917969 -14.44421875 6.28835937 -13.8359375 5.79296875 C-5.90998998 -0.61562396 -5.90998998 -0.61562396 0 0 Z " fill="#E48829" transform="translate(351,83)"/>
<path d="M0 0 C1.86978516 -0.05800781 1.86978516 -0.05800781 3.77734375 -0.1171875 C4.96070313 -0.15457031 6.1440625 -0.19195312 7.36328125 -0.23046875 C10.40234375 0.1953125 10.40234375 0.1953125 12.3125 2.0234375 C13.40234375 4.1953125 13.40234375 4.1953125 13.46484375 7.2578125 C12.40234375 10.1953125 12.40234375 10.1953125 9.97265625 11.8515625 C5.28493383 13.61586941 1.18028022 13.67236341 -3.78515625 13.6328125 C-4.68685547 13.65279297 -5.58855469 13.67277344 -6.51757812 13.69335938 C-13.03739816 13.68850471 -13.03739816 13.68850471 -15.71875 11.328125 C-16.88856882 8.48936465 -16.62813441 7.06593022 -15.59765625 4.1953125 C-13.28403375 1.36678885 -12.63119981 1.20136134 -8.78515625 0.5078125 C-5.85915801 0.28607293 -2.93017883 0.15907594 0 0 Z " fill="#E3821D" transform="translate(360.59765625,132.8046875)"/>
<path d="M0 0 C6.08721231 -0.07401212 12.17416426 -0.12853646 18.26171875 -0.16479492 C20.33370524 -0.17990586 22.40565963 -0.20039541 24.47753906 -0.22631836 C27.45125233 -0.26260051 30.42454373 -0.27970298 33.3984375 -0.29296875 C34.32868744 -0.30845261 35.25893738 -0.32393646 36.21737671 -0.33988953 C37.07811798 -0.34011612 37.93885925 -0.34034271 38.82568359 -0.34057617 C39.58513275 -0.34723801 40.34458191 -0.35389984 41.12704468 -0.36076355 C41.74511993 -0.24171158 42.36319519 -0.12265961 43 0 C45.495784 3.743676 45.25793785 5.75120512 45.265625 10.22265625 C45.26849518 11.27458412 45.26849518 11.27458412 45.27142334 12.34776306 C45.27278267 13.82795572 45.26910382 15.30816041 45.26074219 16.78833008 C45.25002255 19.05772544 45.2606537 21.32633211 45.2734375 23.59570312 C45.27211617 25.03385592 45.26955434 26.47200822 45.265625 27.91015625 C45.26336914 29.22121338 45.26111328 30.53227051 45.25878906 31.88305664 C45 35 45 35 43 37 C41.12704468 37.24050903 41.12704468 37.24050903 38.82568359 37.22705078 C37.53457169 37.22682419 37.53457169 37.22682419 36.21737671 37.22659302 C35.28712677 37.21627045 34.35687683 37.20594788 33.3984375 37.1953125 C32.44683746 37.1924826 31.49523743 37.18965271 30.51480103 37.18673706 C27.46807408 37.17551989 24.42163846 37.15041263 21.375 37.125 C19.31250424 37.11497218 17.25000388 37.10584599 15.1875 37.09765625 C10.12488733 37.07557554 5.0624931 37.0410353 0 37 C-0.33 36.34 -0.66 35.68 -1 35 C13.52 35 28.04 35 43 35 C42.67 24.44 42.34 13.88 42 3 C36.72 2.67 31.44 2.34 26 2 C26 6.95 26 11.9 26 17 C22.90521121 18.03159626 21.47368607 17.97482862 18.3125 17.5625 C17.50425781 17.46066406 16.69601563 17.35882813 15.86328125 17.25390625 C15.24839844 17.17011719 14.63351563 17.08632812 14 17 C14 16.67 14 16.34 14 16 C17.3 16 20.6 16 24 16 C24 11.05 24 6.1 24 1 C16.08 1 8.16 1 0 1 C0 0.67 0 0.34 0 0 Z " fill="#C18746" transform="translate(114,180)"/>
<path d="M0 0 C1.27617188 0.02320313 2.55234375 0.04640625 3.8671875 0.0703125 C5.78917969 0.09738281 5.78917969 0.09738281 7.75 0.125 C9.23113281 0.15980469 9.23113281 0.15980469 10.7421875 0.1953125 C12.18426691 3.07947133 11.83613637 5.61252778 11.8046875 8.8203125 C11.79566406 10.00882813 11.78664063 11.19734375 11.77734375 12.421875 C11.76574219 13.33710938 11.75414063 14.25234375 11.7421875 15.1953125 C14.7121875 15.1953125 17.6821875 15.1953125 20.7421875 15.1953125 C20.7421875 10.2453125 20.7421875 5.2953125 20.7421875 0.1953125 C27.6721875 0.1953125 34.6021875 0.1953125 41.7421875 0.1953125 C41.7421875 0.5253125 41.7421875 0.8553125 41.7421875 1.1953125 C35.1421875 1.1953125 28.5421875 1.1953125 21.7421875 1.1953125 C21.7421875 6.1453125 21.7421875 11.0953125 21.7421875 16.1953125 C17.7821875 16.1953125 13.8221875 16.1953125 9.7421875 16.1953125 C9.7421875 11.2453125 9.7421875 6.2953125 9.7421875 1.1953125 C3.8021875 1.6903125 3.8021875 1.6903125 -2.2578125 2.1953125 C-2.2578125 12.4253125 -2.2578125 22.6553125 -2.2578125 33.1953125 C19.5221875 33.6903125 19.5221875 33.6903125 41.7421875 34.1953125 C41.7421875 34.5253125 41.7421875 34.8553125 41.7421875 35.1953125 C35.20939964 35.22058252 28.67662429 35.23814542 22.14379883 35.25024414 C19.91951018 35.25528567 17.69522487 35.26211873 15.47094727 35.27075195 C12.28140441 35.28282548 9.09190521 35.28854246 5.90234375 35.29296875 C4.40079491 35.30071068 4.40079491 35.30071068 2.86891174 35.30860901 C1.94803268 35.30868454 1.02715363 35.30876007 0.07836914 35.30883789 C-0.73659531 35.3110585 -1.55155975 35.31327911 -2.39122009 35.31556702 C-4.2578125 35.1953125 -4.2578125 35.1953125 -5.2578125 34.1953125 C-5.37098534 31.84302931 -5.42197787 29.52119302 -5.42578125 27.16796875 C-5.42910965 26.46385361 -5.43243805 25.75973846 -5.43586731 25.0342865 C-5.44093905 23.54215144 -5.44327556 22.050005 -5.44311523 20.55786133 C-5.44530009 18.27080643 -5.46344799 15.98423497 -5.48242188 13.69726562 C-5.48535604 12.25000166 -5.48734068 10.80273539 -5.48828125 9.35546875 C-5.49546677 8.66896744 -5.50265228 7.98246613 -5.51005554 7.27516174 C-5.48648238 2.39227606 -5.3611204 0.3214101 0 0 Z " fill="#DB9D52" transform="translate(88.2578125,218.8046875)"/>
<path d="M0 0 C0.33 0 0.66 0 1 0 C1 8.58 1 17.16 1 26 C4.63 26 8.26 26 12 26 C12.33 22.04 12.66 18.08 13 14 C13.33 14 13.66 14 14 14 C14.02686553 15.97909398 14.04633375 17.95828971 14.0625 19.9375 C14.07410156 21.03964844 14.08570313 22.14179688 14.09765625 23.27734375 C14 26 14 26 13 27 C15.22909871 27.02714735 17.45829367 27.04646254 19.6875 27.0625 C20.92886719 27.07410156 22.17023438 27.08570313 23.44921875 27.09765625 C27.26899135 27.09274079 27.26899135 27.09274079 32 26 C32.33 17.42 32.66 8.84 33 0 C33.33 0 33.66 0 34 0 C34.495 8.91 34.495 8.91 35 18 C35.66 18 36.32 18 37 18 C36.69217504 19.64671412 36.37860766 21.29235576 36.0625 22.9375 C35.88847656 23.85402344 35.71445312 24.77054688 35.53515625 25.71484375 C35 28 35 28 34 29 C31.50245859 29.11327366 29.0336001 29.16417191 26.53515625 29.16796875 C25.4123954 29.17296135 25.4123954 29.17296135 24.26695251 29.17805481 C22.68066016 29.18312693 21.0943571 29.18546305 19.50805664 29.18530273 C17.07615631 29.18748773 14.64471051 29.20563581 12.21289062 29.22460938 C10.67448072 29.22754349 9.13606866 29.22952817 7.59765625 29.23046875 C6.86740738 29.23765427 6.13715851 29.24483978 5.38478088 29.25224304 C0.22882307 29.22882307 0.22882307 29.22882307 -2 27 C-1.34 27 -0.68 27 0 27 C0 18.09 0 9.18 0 0 Z " fill="#B9EAF8" transform="translate(249,186)"/>
<path d="M0 0 C6.37203593 -0.0505963 12.7440203 -0.08568957 19.11621094 -0.10986328 C21.28517594 -0.11993789 23.45412731 -0.13359798 25.62304688 -0.15087891 C28.73571126 -0.17506323 31.84819651 -0.18646832 34.9609375 -0.1953125 C35.934935 -0.20563507 36.9089325 -0.21595764 37.91244507 -0.22659302 C39.26361923 -0.22681961 39.26361923 -0.22681961 40.64208984 -0.22705078 C41.43706879 -0.231492 42.23204773 -0.23593323 43.05111694 -0.24050903 C45 0 45 0 47 2 C47.24543141 4.64787789 47.37349386 7.19903823 47.4140625 9.8515625 C47.43342865 10.62559418 47.4527948 11.39962585 47.4727478 12.19711304 C47.5325983 14.67296275 47.57895011 17.14885883 47.625 19.625 C47.66317482 21.30210377 47.70222625 22.97918784 47.7421875 24.65625 C47.83995736 28.77073163 47.91947991 32.8849996 48 37 C55.59 37.33 63.18 37.66 71 38 C71 38.33 71 38.66 71 39 C55.49 39 39.98 39 24 39 C24 38.67 24 38.34 24 38 C24.60062256 37.97494385 25.20124512 37.9498877 25.82006836 37.92407227 C28.52611437 37.8084472 31.23178283 37.68557064 33.9375 37.5625 C34.88302734 37.52318359 35.82855469 37.48386719 36.80273438 37.44335938 C37.70185547 37.40146484 38.60097656 37.35957031 39.52734375 37.31640625 C40.35999756 37.27974854 41.19265137 37.24309082 42.05053711 37.20532227 C44.00338858 37.20632897 44.00338858 37.20632897 45 36 C45.1003385 33.67101083 45.13081494 31.33896122 45.1328125 29.0078125 C45.13376923 28.30606903 45.13472595 27.60432556 45.13571167 26.88131714 C45.1363935 25.39337067 45.134539 23.90542125 45.13037109 22.41748047 C45.12503874 20.1415332 45.13030765 17.86578471 45.13671875 15.58984375 C45.13605766 14.1458329 45.13477585 12.70182217 45.1328125 11.2578125 C45.13112061 9.27998779 45.13112061 9.27998779 45.12939453 7.26220703 C45.15117989 3.98957365 45.15117989 3.98957365 44 1 C37.93079568 1.09347175 31.86199326 1.19955179 25.79321289 1.31738281 C23.72817035 1.35569348 21.6630606 1.39054266 19.59790039 1.421875 C16.63142862 1.46748014 13.6654204 1.52548201 10.69921875 1.5859375 C9.31158577 1.60326431 9.31158577 1.60326431 7.8959198 1.62094116 C6.60492119 1.6507457 6.60492119 1.6507457 5.2878418 1.68115234 C4.53061325 1.69447601 3.7733847 1.70779968 2.99320984 1.7215271 C0.68394812 1.89708612 0.68394812 1.89708612 -2 4 C-1.34 2.68 -0.68 1.36 0 0 Z " fill="#152C45" transform="translate(113,179)"/>
<path d="M0 0 C0.33 0 0.66 0 1 0 C1 10.23 1 20.46 1 31 C25.255 31.495 25.255 31.495 50 32 C49.505 32.99 49.505 32.99 49 34 C42.34313186 34.0505916 35.68631306 34.0856876 29.02929688 34.10986328 C26.76332751 34.11993859 24.49737119 34.13359918 22.23144531 34.15087891 C18.97978499 34.17506011 15.72829613 34.18646763 12.4765625 34.1953125 C10.94994492 34.21079636 10.94994492 34.21079636 9.39248657 34.22659302 C8.45166229 34.22674408 7.51083801 34.22689514 6.54150391 34.22705078 C5.29574081 34.23371262 5.29574081 34.23371262 4.02481079 34.24050903 C2 34 2 34 0 32 C-0.17488254 29.56255103 -0.23177405 27.2406392 -0.1953125 24.8046875 C-0.1924826 24.09724396 -0.18965271 23.38980042 -0.18673706 22.66091919 C-0.17553137 20.3987749 -0.15042679 18.13702485 -0.125 15.875 C-0.11497067 14.34245363 -0.10584474 12.80990106 -0.09765625 11.27734375 C-0.07559086 7.51807699 -0.04105896 3.75910536 0 0 Z " fill="#AB804D" transform="translate(135,221)"/>
<path d="M0 0 C1.10961564 3.51191483 1.03443358 6.63334228 0.87890625 10.296875 C0.83056641 11.50214844 0.78222656 12.70742187 0.73242188 13.94921875 C0.67634766 15.20347656 0.62027344 16.45773438 0.5625 17.75 C0.51029297 19.01972656 0.45808594 20.28945312 0.40429688 21.59765625 C0.27468016 24.73202407 0.13971529 27.86606874 0 31 C-3.3 31 -6.6 31 -10 31 C-10 24.07 -10 17.14 -10 10 C-9.67 10 -9.34 10 -9 10 C-9 16.27 -9 22.54 -9 29 C-6.69 29 -4.38 29 -2 29 C-2.01160156 27.88882813 -2.02320313 26.77765625 -2.03515625 25.6328125 C-2.19045403 4.38090807 -2.19045403 4.38090807 0 0 Z " fill="#093B6D" transform="translate(281,181)"/>
<path d="M0 0 C0 0.99 0 1.98 0 3 C-0.33 2.34 -0.66 1.68 -1 1 C-8.44230094 1.54701632 -15.68160944 2.54198409 -23 4 C-23 6.64 -23 9.28 -23 12 C-16.73 12 -10.46 12 -4 12 C-4 12.33 -4 12.66 -4 13 C-7.27053517 13.11608726 -10.5405418 13.18720711 -13.8125 13.25 C-14.74126953 13.28351563 -15.67003906 13.31703125 -16.62695312 13.3515625 C-17.9659668 13.37089844 -17.9659668 13.37089844 -19.33203125 13.390625 C-20.15421143 13.41157227 -20.9763916 13.43251953 -21.82348633 13.45410156 C-24 13 -24 13 -25.79956055 11.13574219 C-27 9 -27 9 -26.875 6.4375 C-25.92422142 3.78890252 -25.1452682 2.77196167 -23 1 C-15.39329952 -0.37170009 -7.70700935 -0.09866726 0 0 Z " fill="#DFA565" transform="translate(371,133)"/>
<path d="M0 0 C0.33 0 0.66 0 1 0 C1.47545004 9.45617311 0.10435896 17.83100739 -2 27 C-4.61109045 23.17040067 -3.86230768 20.1738461 -3.125 15.75 C-2.92132813 14.48671875 -2.71765625 13.2234375 -2.5078125 11.921875 C-2.34023438 10.95765625 -2.17265625 9.9934375 -2 9 C-1.67 9 -1.34 9 -1 9 C-0.67 6.03 -0.34 3.06 0 0 Z " fill="#5F7D9D" transform="translate(333,145)"/>
<path d="M0 0 C1.98 0.99 1.98 0.99 4 2 C4 13.22 4 24.44 4 36 C3.67 36 3.34 36 3 36 C2.98018066 35.05157227 2.96036133 34.10314453 2.93994141 33.12597656 C2.86174239 29.59967636 2.77504634 26.07379639 2.68261719 22.54785156 C2.64438734 21.02319342 2.609524 19.49844693 2.578125 17.97363281 C2.53234338 15.77897619 2.47437234 13.5849246 2.4140625 11.390625 C2.40251129 10.7113092 2.39096008 10.03199341 2.37905884 9.33209229 C2.26765084 5.7416264 1.94041624 3.06381512 0 0 Z " fill="#31383E" transform="translate(156,179)"/>
<path d="M0 0 C1.24040039 0.08507812 1.24040039 0.08507812 2.50585938 0.171875 C4.52552888 0.31196768 6.54415637 0.46694981 8.5625 0.625 C8.5625 0.955 8.5625 1.285 8.5625 1.625 C7.51191406 1.68558594 6.46132813 1.74617188 5.37890625 1.80859375 C-1.92032152 2.24046473 -9.17861635 2.71763954 -16.4375 3.625 C-16.4375 2.965 -16.4375 2.305 -16.4375 1.625 C-10.70911874 -0.38954482 -6.01603144 -0.48477288 0 0 Z " fill="#5A799D" transform="translate(264.4375,96.375)"/>
<path d="M0 0 C-1.41249117 3.34192499 -3.04557634 5.07565375 -5.875 7.3125 C-9.71271067 10.53617696 -11.80494968 13.51843892 -14 18 C-14.66 18 -15.32 18 -16 18 C-14.59787748 13.77089533 -12.58624819 11.12217785 -9.5625 7.875 C-8.78003906 7.02679688 -7.99757812 6.17859375 -7.19140625 5.3046875 C-6.10666016 4.16386719 -6.10666016 4.16386719 -5 3 C-4.45214844 2.40445313 -3.90429688 1.80890625 -3.33984375 1.1953125 C-2 0 -2 0 0 0 Z " fill="#A9D9EE" transform="translate(240,114)"/>
<path d="M0 0 C2.33944736 0.28730055 4.6739143 0.61936779 7 1 C7 1.99 7 2.98 7 4 C6.46375 3.731875 5.9275 3.46375 5.375 3.1875 C2.42717399 2.95477689 1.95188505 3.5799856 -0.25 5.4375 C-1.61125 6.7059375 -1.61125 6.7059375 -3 8 C-3.33 7.34 -3.66 6.68 -4 6 C-1.68421053 1.68421053 -1.68421053 1.68421053 0 0 Z " fill="#E69B48" transform="translate(303,51)"/>
<path d="M0 0 C0.33 0 0.66 0 1 0 C2.45454545 7.27272727 2.45454545 7.27272727 0.4375 10.5 C-2.57716809 12.35518036 -4.52068855 12.31630104 -8 12 C-8.33 11.34 -8.66 10.68 -9 10 C-6.36 10 -3.72 10 -1 10 C-0.67 6.7 -0.34 3.4 0 0 Z " fill="#E0A762" transform="translate(261,61)"/>
<path d="M0 0 C0 0.99 0 1.98 0 3 C-0.33 3.33 -0.66 3.66 -1 4 C-1.04063832 5.66617115 -1.042721 7.33388095 -1 9 C1.97 9.495 1.97 9.495 5 10 C4.67 10.66 4.34 11.32 4 12 C1.125 11.6875 1.125 11.6875 -2 11 C-4 8 -4 8 -3.8125 4.9375 C-3 2 -3 2 0 0 Z " fill="#D99C5A" transform="translate(332,94)"/>
<path d="M0 0 C6.93 2.97 6.93 2.97 14 6 C14 6.99 14 7.98 14 9 C13.67 8.34 13.34 7.68 13 7 C11.08155935 6.42045787 11.08155935 6.42045787 8.8125 6.0625 C4.81951006 5.26517773 1.56986373 4.01376929 -2 2 C-1.34 1.34 -0.68 0.68 0 0 Z " fill="#DA9A54" transform="translate(162,82)"/>
<path d="M0 0 C-2.12282669 1.00460531 -4.24833021 2.00355602 -6.375 3 C-8.15003906 3.8353125 -8.15003906 3.8353125 -9.9609375 4.6875 C-13 6 -13 6 -15 6 C-15 5.34 -15 4.68 -15 4 C-13.25705322 3.13153169 -11.50531337 2.28069373 -9.75 1.4375 C-8.77546875 0.96183594 -7.8009375 0.48617187 -6.796875 -0.00390625 C-3.90143703 -1.03510273 -2.80033839 -1.11346788 0 0 Z " fill="#4A698B" transform="translate(135,81)"/>
<path d="M0 0 C2.29296875 -0.28125 2.29296875 -0.28125 5 0 C6.80078125 1.96875 6.80078125 1.96875 8.3125 4.5 C8.82425781 5.3353125 9.33601562 6.170625 9.86328125 7.03125 C10.23839844 7.6809375 10.61351562 8.330625 11 9 C10.01 9 9.02 9 8 9 C6.71875 7.5390625 6.71875 7.5390625 5.5 5.625 C3.74125866 2.88542214 2.82715002 1.88476668 0 0 Z " fill="#446487" transform="translate(239,272)"/>
<path d="M0 0 C0.33 0 0.66 0 1 0 C1 1.98 1 3.96 1 6 C2.65 6.33 4.3 6.66 6 7 C6 7.66 6 8.32 6 9 C6.66 9.33 7.32 9.66 8 10 C2.57306338 9.51760563 2.57306338 9.51760563 0.0625 7.25 C-1.27773867 4.41184751 -0.90110078 2.94905709 0 0 Z " fill="#E1AC6E" transform="translate(294,70)"/>
<path d="M0 0 C1.79068573 2.6860286 2.66055791 4.6626589 3.625 7.6875 C3.88539063 8.49574219 4.14578125 9.30398437 4.4140625 10.13671875 C4.60742188 10.75160156 4.80078125 11.36648437 5 12 C2 11 2 11 0.8125 8.8125 C-0.07334979 5.74609689 -0.14770318 3.17561845 0 0 Z " fill="#537191" transform="translate(212,166)"/>
<path d="M0 0 C1.65 0.33 3.3 0.66 5 1 C5 1.99 5 2.98 5 4 C3.35 4 1.7 4 0 4 C0 2.68 0 1.36 0 0 Z " fill="#0F386A" transform="translate(132,253)"/>
<path d="M0 0 C2.0625 0.4375 2.0625 0.4375 4 1 C2.1875 3 2.1875 3 0 5 C-0.99 5 -1.98 5 -3 5 C-1.125 1.125 -1.125 1.125 0 0 Z " fill="#DF8C36" transform="translate(336,90)"/>
<path d="M0 0 C0.66 0.66 1.32 1.32 2 2 C1.75 5.0625 1.75 5.0625 1 8 C0.01 8.495 0.01 8.495 -1 9 C-1.125 2.25 -1.125 2.25 0 0 Z " fill="#E4A961" transform="translate(372,135)"/>
<path d="M0 0 C0.66 0.33 1.32 0.66 2 1 C-0.06756277 3.7972908 -1.14440371 4.02692273 -4.6875 4.6875 C-5.780625 4.790625 -6.87375 4.89375 -8 5 C-5.45378681 2.99940392 -3.01962385 1.20784954 0 0 Z " fill="#506D8C" transform="translate(77,80)"/>
<path d="M0 0 C0.66 0.33 1.32 0.66 2 1 C0.29374499 3.78388975 -0.47626739 4.85384206 -3.6875 5.75 C-4.8321875 5.87375 -4.8321875 5.87375 -6 6 C-4 4 -2 2 0 0 Z " fill="#507496" transform="translate(225,96)"/>
<path d="M0 0 C1.98 0.99 1.98 0.99 4 2 C4 5.3 4 8.6 4 12 C3.67 12 3.34 12 3 12 C2.814375 10.14375 2.814375 10.14375 2.625 8.25 C2.24253695 5.1237803 1.69450477 2.71120763 0 0 Z " fill="#38414A" transform="translate(156,179)"/>
<path d="M0 0 C-2.93828597 2.50298434 -5.17902761 3.46930939 -9 4 C-9 3.34 -9 2.68 -9 2 C-5.86501708 0.14223235 -3.62528568 -0.20140476 0 0 Z " fill="#4B6989" transform="translate(112,91)"/>
<path d="M0 0 C2.31 0.33 4.62 0.66 7 1 C7 1.99 7 2.98 7 4 C4.36 3.34 1.72 2.68 -1 2 C-0.67 1.34 -0.34 0.68 0 0 Z " fill="#DC9C5B" transform="translate(303,51)"/>
</svg>
